<svg width="27" height="26" viewBox="0 0 27 26" fill="none" xmlns="http://www.w3.org/2000/svg">
<g clip-path="url(#clip0_1_7)">
<path d="M26.5 13.0795C26.5 5.85586 20.6797 0 13.5 0C6.32029 0 0.5 5.85586 0.5 13.0795C0.5 19.6078 5.25391 25.0188 11.4688 26V16.8602H8.16798V13.0795H11.4688V10.1979C11.4688 6.91984 13.4096 5.10917 16.379 5.10917C17.8014 5.10917 19.2891 5.36462 19.2891 5.36462V8.58339H17.6498C16.0349 8.58339 15.5313 9.59161 15.5313 10.626V13.0795H19.1367L18.5604 16.8602H15.5312V26C21.7461 25.0188 26.5 19.6078 26.5 13.0795" fill="#1877F2"/>
</g>
<defs>
<clipPath id="clip0_1_7">
<rect width="26" height="26" fill="white" transform="translate(0.5)"/>
</clipPath>
</defs>
</svg>
