<svg width="27" height="26" viewBox="0 0 27 26" fill="none" xmlns="http://www.w3.org/2000/svg">
<g clip-path="url(#clip0_0_20)">
<path d="M26.557 13.2925C26.557 12.4367 26.4812 11.6242 26.3512 10.8333H14.1095V15.7192H21.1187C20.8045 17.3225 19.8837 18.6767 18.5187 19.5975V22.8475H22.7003C25.1487 20.5833 26.557 17.2467 26.557 13.2925Z" fill="#4285F4"/>
<path d="M14.1095 26C17.6195 26 20.5553 24.83 22.7003 22.8475L18.5187 19.5975C17.3487 20.3775 15.8645 20.8542 14.1095 20.8542C10.7187 20.8542 7.84784 18.5683 6.81867 15.4808H2.507V18.8283C4.64117 23.075 9.02867 26 14.1095 26Z" fill="#34A853"/>
<path d="M6.81867 15.4808C6.54784 14.7008 6.407 13.8667 6.407 13C6.407 12.1333 6.55867 11.2992 6.81867 10.5192V7.17167H2.507C1.61867 8.92667 1.1095 10.8983 1.1095 13C1.1095 15.1017 1.61867 17.0733 2.507 18.8283L6.81867 15.4808Z" fill="#FBBC05"/>
<path d="M14.1095 5.14583C16.027 5.14583 17.7387 5.80667 19.0928 7.09584L22.7978 3.39083C20.5553 1.28917 17.6195 0 14.1095 0C9.02867 0 4.64117 2.925 2.507 7.17167L6.81867 10.5192C7.84784 7.43167 10.7187 5.14583 14.1095 5.14583Z" fill="#EA4335"/>
</g>
<defs>
<clipPath id="clip0_0_20">
<rect width="26" height="26" fill="white" transform="translate(0.833252)"/>
</clipPath>
</defs>
</svg>
